<svg xmlns="http://www.w3.org/2000/svg" viewBox="0 0 256 256">
  <path d="M 69.0,227.0 L 69.0,242.0 L 70.0,243.0 L 201.0,243.0 L 202.0,242.0 L 203.0,242.0 L 203.0,228.0 L 199.0,224.0 L 73.0,224.0 L 72.0,225.0 L 71.0,225.0 Z" fill="#000" fill-rule="evenodd"/>
  <path d="M 77.0,196.0 L 77.0,214.0 L 78.0,215.0 L 193.0,215.0 L 194.0,214.0 L 195.0,214.0 L 195.0,196.0 L 191.0,192.0 L 81.0,192.0 Z" fill="#000" fill-rule="evenodd"/>
  <path d="M 99.0,14.0 L 99.0,21.0 L 100.0,22.0 L 100.0,24.0 L 101.0,25.0 L 101.0,29.0 L 100.0,30.0 L 100.0,31.0 L 95.0,35.0 L 93.0,35.0 L 92.0,36.0 L 91.0,36.0 L 84.0,43.0 L 84.0,44.0 L 83.0,45.0 L 83.0,48.0 L 82.0,49.0 L 82.0,50.0 L 81.0,51.0 L 81.0,53.0 L 80.0,54.0 L 80.0,56.0 L 78.0,58.0 L 78.0,59.0 L 77.0,60.0 L 76.0,63.0 L 74.0,65.0 L 73.0,68.0 L 72.0,69.0 L 71.0,69.0 L 71.0,70.0 L 69.0,72.0 L 69.0,73.0 L 66.0,76.0 L 66.0,77.0 L 64.0,79.0 L 64.0,80.0 L 63.0,81.0 L 63.0,82.0 L 61.0,84.0 L 61.0,85.0 L 57.0,89.0 L 57.0,90.0 L 54.0,93.0 L 54.0,94.0 L 53.0,95.0 L 53.0,99.0 L 54.0,100.0 L 54.0,103.0 L 55.0,104.0 L 56.0,104.0 L 57.0,105.0 L 57.0,106.0 L 67.0,106.0 L 69.0,108.0 L 69.0,109.0 L 71.0,111.0 L 71.0,112.0 L 72.0,112.0 L 73.0,113.0 L 77.0,113.0 L 78.0,112.0 L 80.0,112.0 L 80.0,111.0 L 81.0,110.0 L 82.0,110.0 L 82.0,108.0 L 83.0,107.0 L 84.0,107.0 L 88.0,103.0 L 89.0,103.0 L 93.0,99.0 L 95.0,99.0 L 97.0,97.0 L 100.0,97.0 L 101.0,98.0 L 104.0,98.0 L 105.0,99.0 L 107.0,99.0 L 109.0,97.0 L 113.0,97.0 L 114.0,96.0 L 116.0,96.0 L 116.0,95.0 L 119.0,93.0 L 122.0,94.0 L 124.0,97.0 L 124.0,101.0 L 123.0,102.0 L 123.0,106.0 L 122.0,107.0 L 121.0,107.0 L 121.0,109.0 L 120.0,110.0 L 120.0,112.0 L 105.0,127.0 L 105.0,128.0 L 93.0,140.0 L 93.0,142.0 L 92.0,143.0 L 91.0,143.0 L 91.0,145.0 L 88.0,148.0 L 88.0,149.0 L 87.0,150.0 L 87.0,152.0 L 85.0,155.0 L 85.0,157.0 L 84.0,158.0 L 84.0,160.0 L 83.0,161.0 L 83.0,164.0 L 84.0,165.0 L 84.0,172.0 L 83.0,173.0 L 83.0,175.0 L 82.0,176.0 L 81.0,176.0 L 81.0,177.0 L 79.0,180.0 L 80.0,181.0 L 80.0,182.0 L 190.0,182.0 L 191.0,181.0 L 192.0,181.0 L 192.0,180.0 L 190.0,178.0 L 190.0,177.0 L 189.0,176.0 L 188.0,176.0 L 187.0,175.0 L 187.0,174.0 L 182.0,169.0 L 182.0,155.0 L 184.0,152.0 L 184.0,147.0 L 185.0,146.0 L 185.0,141.0 L 186.0,140.0 L 186.0,138.0 L 187.0,137.0 L 187.0,130.0 L 189.0,128.0 L 189.0,111.0 L 190.0,110.0 L 190.0,103.0 L 189.0,102.0 L 189.0,100.0 L 187.0,98.0 L 187.0,84.0 L 186.0,83.0 L 186.0,76.0 L 184.0,73.0 L 184.0,71.0 L 182.0,68.0 L 182.0,66.0 L 181.0,65.0 L 181.0,64.0 L 179.0,61.0 L 179.0,59.0 L 177.0,57.0 L 177.0,56.0 L 176.0,55.0 L 176.0,53.0 L 173.0,50.0 L 173.0,49.0 L 165.0,41.0 L 165.0,40.0 L 164.0,40.0 L 161.0,37.0 L 158.0,36.0 L 157.0,35.0 L 157.0,34.0 L 153.0,30.0 L 152.0,30.0 L 149.0,28.0 L 147.0,28.0 L 145.0,26.0 L 143.0,26.0 L 140.0,24.0 L 119.0,24.0 L 118.0,23.0 L 117.0,23.0 L 115.0,21.0 L 115.0,20.0 L 112.0,19.0 L 107.0,14.0 L 106.0,14.0 L 105.0,13.0 L 101.0,13.0 L 100.0,14.0 Z" fill="#000" fill-rule="evenodd"/>
</svg>